<svg width="37" height="37" viewBox="0 0 37 37" fill="none" xmlns="http://www.w3.org/2000/svg">
<circle cx="18.3722" cy="18.3722" r="17.8722" fill="white" stroke="#D8D8D8"/>
<path d="M26.3779 14.5428L25.1459 16.3972C25.74 17.5831 26.0309 18.898 25.9924 20.224C25.954 21.55 25.5874 22.8458 24.9255 23.9952H11.0429C10.1827 22.5018 9.82622 20.7707 10.0264 19.0586C10.2266 17.3465 10.9727 15.7445 12.1542 14.4901C13.3357 13.2357 14.8896 12.3958 16.5857 12.0947C18.2817 11.7936 20.0295 12.0475 21.5701 12.8187L23.4231 11.5858C21.5365 10.3751 19.2987 9.83264 17.0676 10.0451C14.8365 10.2575 12.7411 11.2126 11.1165 12.7576C9.49192 14.3026 8.43201 16.3482 8.10634 18.5672C7.78066 20.7862 8.20804 23.0504 9.3201 24.9976C9.49489 25.3006 9.74588 25.5525 10.0481 25.7284C10.3503 25.9042 10.6933 25.9979 11.0429 26H24.9155C25.2685 26.0014 25.6156 25.9094 25.9217 25.7334C26.2277 25.5574 26.4819 25.3035 26.6583 24.9976C27.5812 23.3977 28.0444 21.5738 27.9967 19.7271C27.9489 17.8804 27.3922 16.0828 26.3879 14.5328L26.3779 14.5428Z" fill="#333333"/>
<path d="M16.5816 21.4184C16.7658 21.6028 16.9845 21.749 17.2253 21.8488C17.466 21.9486 17.7241 22 17.9847 22C18.2453 22 18.5034 21.9486 18.7441 21.8488C18.9849 21.749 19.2036 21.6028 19.3878 21.4184L25 13L16.5816 18.6122C16.3972 18.7964 16.251 19.0151 16.1512 19.2559C16.0514 19.4966 16 19.7547 16 20.0153C16 20.2759 16.0514 20.534 16.1512 20.7747C16.251 21.0155 16.3972 21.2342 16.5816 21.4184Z" fill="#333333"/>
</svg>
