<svg width="37" height="38" viewBox="0 0 37 38" fill="none" xmlns="http://www.w3.org/2000/svg">
<circle cx="18.3722" cy="19.0116" r="17.8722" fill="white" stroke="#D8D8D8"/>
<path fill-rule="evenodd" clip-rule="evenodd" d="M10.8524 16.1802H12.9618L14.5551 14.1566C14.6733 14.0135 14.8466 13.934 15.0278 13.934H17.3361V12.7055H15.9732C15.8106 12.7055 15.6583 12.6709 15.528 12.6105C15.2733 12.4923 15.1027 12.2756 15.1027 12.0257V11.6838C15.1027 11.3061 15.4926 11 15.9732 11H20.6607C21.1413 11 21.5313 11.3061 21.5313 11.6838V12.0297C21.5313 12.2775 21.3597 12.4956 21.104 12.6145C20.9742 12.6748 20.8226 12.7095 20.6607 12.7095H19.2269V13.938H21.6376C21.7991 13.938 21.9567 14.0016 22.0709 14.1169L24.911 16.4585H25.2694C25.285 16.2417 25.3364 16.0348 25.4178 15.8438C25.4883 15.6785 25.5812 15.5251 25.6927 15.3877C26.0404 14.9592 26.5686 14.6854 27.1602 14.6854C28.208 14.6854 29.0588 15.5441 29.0588 16.5977V23.4C29.0588 24.4575 28.208 25.3162 27.1602 25.3162C26.4997 25.3162 25.9162 24.9723 25.5767 24.4519C25.3897 24.1653 25.2767 23.8252 25.2655 23.4596H24.2532V25.3758C24.2532 25.7217 23.9774 26 23.6347 26H15.4848C15.2996 26 15.1263 25.9165 15.0081 25.7734L13.2001 23.5828H10.8682C10.5255 23.5828 10.2497 23.3045 10.2497 22.9587V20.8715H8.68986V22.247C8.68986 22.732 8.39049 23.1256 8.01628 23.1256H7.67752C7.30331 23.1256 7 22.732 7 22.247V17.516C7 17.031 7.30331 16.6374 7.67752 16.6374H8.01628C8.38655 16.6374 8.68986 17.031 8.68986 17.516V18.9632H10.2497V16.8044C10.2497 16.4665 10.5176 16.1882 10.8524 16.1802Z" fill="#333333"/>
</svg>
