<svg width="37" height="38" viewBox="0 0 37 38" fill="none" xmlns="http://www.w3.org/2000/svg">
<circle cx="18.3722" cy="19.0116" r="17.8722" fill="white" stroke="#D8D8D8"/>
<path fill-rule="evenodd" clip-rule="evenodd" d="M26.1639 14.0465L26.1733 14.0371L22.6685 10.5322L21.6698 11.5309L23.6577 13.5189C22.7721 13.8581 22.1408 14.706 22.1408 15.7141C22.1408 17.0143 23.1961 18.0695 24.4963 18.0695C24.8354 18.0695 25.1463 17.9942 25.4384 17.8717V24.6647C25.4384 25.1829 25.0144 25.6069 24.4963 25.6069C23.9781 25.6069 23.5541 25.1829 23.5541 24.6647V20.425C23.5541 19.3886 22.7061 18.5406 21.6698 18.5406H20.7276V11.9455C20.7276 10.9091 19.8797 10.0612 18.8433 10.0612H13.1903C12.1539 10.0612 11.306 10.9091 11.306 11.9455V27.0201H20.7276V19.9539H22.1408V24.6647C22.1408 25.9649 23.1961 27.0201 24.4963 27.0201C25.7964 27.0201 26.8517 25.9649 26.8517 24.6647V15.7141C26.8517 15.064 26.5879 14.4705 26.1639 14.0465ZM18.8433 16.6563H13.1903V11.9455H18.8433V16.6563ZM23.5541 15.714C23.5541 16.2322 23.9781 16.6562 24.4962 16.6562C25.0144 16.6562 25.4384 16.2322 25.4384 15.714C25.4384 15.1958 25.0144 14.7719 24.4962 14.7719C23.9781 14.7719 23.5541 15.1958 23.5541 15.714Z" fill="#333333"/>
</svg>
