<svg width="37" height="37" viewBox="0 0 37 37" fill="none" xmlns="http://www.w3.org/2000/svg">
<circle cx="18.3722" cy="18.3722" r="17.8722" fill="white" stroke="#D8D8D8"/>
<path d="M25.0092 10.0567C24.9498 9.9157 24.8862 9.77708 24.8055 9.63736C24.7248 9.49764 24.6366 9.37325 24.5442 9.25124L25.0198 8.07256C25.0623 7.96583 25.0188 7.84301 24.9173 7.78108L23.2745 6.83372C23.1995 6.78932 23.1083 6.79267 23.0343 6.83538C23.0097 6.84961 22.9874 6.86796 22.9716 6.88804L22.1856 7.88977C21.877 7.84876 21.5686 7.84602 21.2586 7.88801L20.4737 6.88916C20.4044 6.79765 20.2754 6.7735 20.1727 6.83282L18.5289 7.78186C18.4262 7.84118 18.3826 7.96497 18.4272 8.07072L18.8998 9.24989C18.7084 9.49735 18.5589 9.76994 18.4378 10.0536L17.1772 10.2334C17.1478 10.2394 17.1208 10.2496 17.0962 10.2638C17.0263 10.3041 16.9778 10.3814 16.9788 10.4686L16.9778 12.365C16.9766 12.4862 17.0653 12.5829 17.179 12.5995L18.4375 12.7769C18.497 12.9179 18.563 13.0607 18.6413 13.1963C18.7196 13.3319 18.8102 13.4604 18.9026 13.5824L18.4269 14.7611C18.3845 14.8678 18.428 14.9906 18.5295 15.0525L20.1723 15.9999C20.2472 16.0443 20.3385 16.041 20.4124 15.9982C20.4371 15.984 20.4594 15.9657 20.4752 15.9456L21.2612 14.9439C21.5698 14.9849 21.8782 14.9876 22.1882 14.9456L22.9731 15.9445C23.0424 16.036 23.1714 16.0601 23.2741 16.0008L24.9179 15.0518C25.0206 14.9925 25.0642 14.8687 25.0196 14.7629L24.547 13.5837C24.7384 13.3363 24.8878 13.0637 25.009 12.78L26.2695 12.6002C26.2989 12.5942 26.326 12.5841 26.3506 12.5698C26.4205 12.5295 26.469 12.4522 26.468 12.3651L26.469 10.4687C26.4661 10.3498 26.3815 10.2507 26.2678 10.2341L25.0092 10.0567ZM23.7899 9.82375C23.8798 9.94165 23.9338 10.0256 23.9836 10.1119C24.0334 10.1982 24.0774 10.2933 24.1363 10.4237L24.3468 10.9213L24.8787 10.9978L25.5218 11.0868L25.5212 11.7501L24.8783 11.8418L24.3513 11.916L24.1427 12.409C24.042 12.6425 23.9304 12.8384 23.8023 13.0055L23.4687 13.4337L23.671 13.9361L23.9091 14.5383L23.3338 14.8705L22.9354 14.3608L22.6016 13.9344L22.0639 14.0092C21.8445 14.0372 21.6256 14.0376 21.39 14.0092L20.85 13.9375L20.5164 14.3657L20.1155 14.8766L19.5408 14.5454L19.7853 13.944L19.9849 13.4451L19.6593 13.014C19.5734 12.8937 19.5106 12.8039 19.4632 12.7217C19.4157 12.6396 19.3694 12.5403 19.3105 12.4099L19.1 11.9123L18.5681 11.8358L17.925 11.7468L17.9256 11.0835L18.5685 10.9918L19.0955 10.9176L19.304 10.4247C19.4048 10.1911 19.5164 9.99522 19.6445 9.82808L19.9781 9.39988L19.7758 8.89755L19.5376 8.29532L20.1089 7.96552L20.5072 8.47522L20.8411 8.90163L21.3787 8.82684C21.5981 8.79879 21.8171 8.79841 22.0526 8.82679L22.5927 8.89854L22.9263 8.47034L23.3272 7.95943L23.9019 8.2906L23.6639 8.89377L23.4642 9.3926L23.7899 9.82375ZM20.7743 9.77302C19.8662 10.2974 19.5553 11.4577 20.0796 12.3659C20.6039 13.274 21.7642 13.5849 22.6724 13.0606C23.5806 12.5363 23.8915 11.376 23.3672 10.4678C22.8428 9.55958 21.6825 9.24868 20.7743 9.77302ZM22.1979 12.2387C21.7459 12.4997 21.1625 12.3434 20.9015 11.8913C20.6405 11.4393 20.7968 10.8559 21.2489 10.5949C21.7009 10.3339 22.2843 10.4902 22.5453 10.9423C22.8063 11.3943 22.65 11.9777 22.1979 12.2387Z" fill="#333333"/>
<path d="M21.2305 23.235C21.2614 22.995 21.2845 22.755 21.2845 22.5C21.2845 22.245 21.2614 22.005 21.2305 21.765L22.8574 20.5275C23.0039 20.415 23.0425 20.2125 22.9499 20.0475L21.4079 17.4525C21.3385 17.3325 21.2074 17.265 21.0686 17.265C21.0223 17.265 20.9761 17.2725 20.9375 17.2875L19.0176 18.0375C18.6167 17.7375 18.1849 17.49 17.7146 17.3025L17.4216 15.315C17.3985 15.135 17.2365 15 17.0438 15H13.9596C13.7669 15 13.6049 15.135 13.5818 15.315L13.2888 17.3025C12.8185 17.49 12.3867 17.745 11.9858 18.0375L10.0659 17.2875C10.0196 17.2725 9.97335 17.265 9.92708 17.265C9.79601 17.265 9.66493 17.3325 9.59554 17.4525L8.05346 20.0475C7.95322 20.2125 7.99948 20.415 8.14598 20.5275L9.77288 21.765C9.74204 22.005 9.7189 22.2525 9.7189 22.5C9.7189 22.7475 9.74204 22.995 9.77288 23.235L8.14598 24.4725C7.99948 24.585 7.96093 24.7875 8.05346 24.9525L9.59554 27.5475C9.66493 27.6675 9.79601 27.735 9.9348 27.735C9.98106 27.735 10.0273 27.7275 10.0659 27.7125L11.9858 26.9625C12.3867 27.2625 12.8185 27.51 13.2888 27.6975L13.5818 29.685C13.6049 29.865 13.7669 30 13.9596 30H17.0438C17.2365 30 17.3985 29.865 17.4216 29.685L17.7146 27.6975C18.1849 27.51 18.6167 27.255 19.0176 26.9625L20.9375 27.7125C20.9838 27.7275 21.0301 27.735 21.0763 27.735C21.2074 27.735 21.3385 27.6675 21.4079 27.5475L22.9499 24.9525C23.0425 24.7875 23.0039 24.585 22.8574 24.4725L21.2305 23.235ZM19.7039 21.9525C19.7347 22.185 19.7424 22.3425 19.7424 22.5C19.7424 22.6575 19.727 22.8225 19.7039 23.0475L19.5959 23.895L20.2822 24.42L21.1149 25.05L20.5751 25.9575L19.5959 25.575L18.794 25.26L18.1001 25.77C17.7686 26.01 17.4524 26.19 17.1363 26.3175L16.319 26.64L16.1956 27.4875L16.0414 28.5H14.962L14.8155 27.4875L14.6921 26.64L13.8748 26.3175C13.5433 26.1825 13.2348 26.01 12.9264 25.785L12.2248 25.26L11.4075 25.5825L10.4283 25.965L9.88853 25.0575L10.7213 24.4275L11.4075 23.9025L11.2995 23.055C11.2764 22.8225 11.261 22.65 11.261 22.5C11.261 22.35 11.2764 22.1775 11.2995 21.9525L11.4075 21.105L10.7213 20.58L9.88853 19.95L10.4283 19.0425L11.4075 19.425L12.2094 19.74L12.9033 19.23C13.2348 18.99 13.551 18.81 13.8671 18.6825L14.6844 18.36L14.8078 17.5125L14.962 16.5H16.0337L16.1802 17.5125L16.3036 18.36L17.1209 18.6825C17.4524 18.8175 17.7609 18.99 18.0693 19.215L18.7709 19.74L19.5882 19.4175L20.5674 19.035L21.1072 19.9425L20.2822 20.58L19.5959 21.105L19.7039 21.9525ZM15.5017 19.5C13.7977 19.5 12.4175 20.8425 12.4175 22.5C12.4175 24.1575 13.7977 25.5 15.5017 25.5C17.2057 25.5 18.5859 24.1575 18.5859 22.5C18.5859 20.8425 17.2057 19.5 15.5017 19.5ZM15.5017 24C14.6536 24 13.9596 23.325 13.9596 22.5C13.9596 21.675 14.6536 21 15.5017 21C16.3498 21 17.0438 21.675 17.0438 22.5C17.0438 23.325 16.3498 24 15.5017 24Z" fill="#333333"/>
</svg>
